<svg width="186" height="38" viewBox="0 0 186 38" fill="none" xmlns="http://www.w3.org/2000/svg">
<path fill-rule="evenodd" clip-rule="evenodd" d="M19 4.97009L38 22.0113V38H32V24.6897L19 13.0299L5.00307 25.5838L0.996918 21.1172L19 4.97009Z" fill="#FEE074"/>
<path fill-rule="evenodd" clip-rule="evenodd" d="M0 38V0H6V38H0Z" fill="#FEE074"/>
<path d="M67.9 8.65V29.5H64.48V20.38H54.67V29.5H51.25V8.65H54.67V17.59H64.48V8.65H67.9ZM86.4123 29.71C84.4723 29.71 82.6823 29.26 81.0423 28.36C79.4223 27.44 78.1323 26.17 77.1723 24.55C76.2323 22.91 75.7623 21.07 75.7623 19.03C75.7623 16.99 76.2323 15.16 77.1723 13.54C78.1323 11.92 79.4223 10.66 81.0423 9.76C82.6823 8.84 84.4723 8.38 86.4123 8.38C88.3723 8.38 90.1623 8.84 91.7823 9.76C93.4223 10.66 94.7123 11.92 95.6523 13.54C96.5923 15.16 97.0623 16.99 97.0623 19.03C97.0623 21.07 96.5923 22.91 95.6523 24.55C94.7123 26.17 93.4223 27.44 91.7823 28.36C90.1623 29.26 88.3723 29.71 86.4123 29.71ZM86.4123 26.74C87.7923 26.74 89.0223 26.43 90.1023 25.81C91.1823 25.17 92.0223 24.27 92.6223 23.11C93.2423 21.93 93.5523 20.57 93.5523 19.03C93.5523 17.49 93.2423 16.14 92.6223 14.98C92.0223 13.82 91.1823 12.93 90.1023 12.31C89.0223 11.69 87.7923 11.38 86.4123 11.38C85.0323 11.38 83.8023 11.69 82.7223 12.31C81.6423 12.93 80.7923 13.82 80.1723 14.98C79.5723 16.14 79.2723 17.49 79.2723 19.03C79.2723 20.57 79.5723 21.93 80.1723 23.11C80.7923 24.27 81.6423 25.17 82.7223 25.81C83.8023 26.43 85.0323 26.74 86.4123 26.74ZM108.318 8.65V21.94C108.318 23.52 108.728 24.71 109.548 25.51C110.388 26.31 111.548 26.71 113.028 26.71C114.528 26.71 115.688 26.31 116.508 25.51C117.348 24.71 117.768 23.52 117.768 21.94V8.65H121.188V21.88C121.188 23.58 120.818 25.02 120.078 26.2C119.338 27.38 118.348 28.26 117.108 28.84C115.868 29.42 114.498 29.71 112.998 29.71C111.498 29.71 110.128 29.42 108.888 28.84C107.668 28.26 106.698 27.38 105.978 26.2C105.258 25.02 104.898 23.58 104.898 21.88V8.65H108.318ZM137.011 29.71C135.611 29.71 134.351 29.47 133.231 28.99C132.111 28.49 131.231 27.79 130.591 26.89C129.951 25.99 129.631 24.94 129.631 23.74H133.291C133.371 24.64 133.721 25.38 134.341 25.96C134.981 26.54 135.871 26.83 137.011 26.83C138.191 26.83 139.111 26.55 139.771 25.99C140.431 25.41 140.761 24.67 140.761 23.77C140.761 23.07 140.551 22.5 140.131 22.06C139.731 21.62 139.221 21.28 138.601 21.04C138.001 20.8 137.161 20.54 136.081 20.26C134.721 19.9 133.611 19.54 132.751 19.18C131.911 18.8 131.191 18.22 130.591 17.44C129.991 16.66 129.691 15.62 129.691 14.32C129.691 13.12 129.991 12.07 130.591 11.17C131.191 10.27 132.031 9.58 133.111 9.1C134.191 8.62 135.441 8.38 136.861 8.38C138.881 8.38 140.531 8.89 141.811 9.91C143.111 10.91 143.831 12.29 143.971 14.05H140.191C140.131 13.29 139.771 12.64 139.111 12.1C138.451 11.56 137.581 11.29 136.501 11.29C135.521 11.29 134.721 11.54 134.101 12.04C133.481 12.54 133.171 13.26 133.171 14.2C133.171 14.84 133.361 15.37 133.741 15.79C134.141 16.19 134.641 16.51 135.241 16.75C135.841 16.99 136.661 17.25 137.701 17.53C139.081 17.91 140.201 18.29 141.061 18.67C141.941 19.05 142.681 19.64 143.281 20.44C143.901 21.22 144.211 22.27 144.211 23.59C144.211 24.65 143.921 25.65 143.341 26.59C142.781 27.53 141.951 28.29 140.851 28.87C139.771 29.43 138.491 29.71 137.011 29.71ZM156.166 11.41V17.53H163.366V20.32H156.166V26.71H164.266V29.5H152.746V8.62H164.266V11.41H156.166ZM174.359 29.71C173.739 29.71 173.219 29.5 172.799 29.08C172.379 28.66 172.169 28.14 172.169 27.52C172.169 26.9 172.379 26.38 172.799 25.96C173.219 25.54 173.739 25.33 174.359 25.33C174.959 25.33 175.469 25.54 175.889 25.96C176.309 26.38 176.519 26.9 176.519 27.52C176.519 28.14 176.309 28.66 175.889 29.08C175.469 29.5 174.959 29.71 174.359 29.71Z" fill="white"/>
</svg>
